HIERARCHY
ROOT SpineBase
{
  OFFSET 0.000000 0.000000 0.000000
  CHANNELS 6 Xposition Yposition Zposition Zrotation Xrotation Yrotation
  JOINT SpineMid
  {
    OFFSET 0.000000 32.596670 0.000000
    CHANNELS 3 Zrotation Xrotation Yrotation
    JOINT SpineShoulder
    {
      OFFSET -0.041912 24.069850 -0.743775
      CHANNELS 3 Zrotation Xrotation Yrotation
      JOINT Neck
      {
        OFFSET -0.003439 7.886379 -0.557971
        CHANNELS 3 Zrotation Xrotation Yrotation
        JOINT Head
        {
          OFFSET -5.713401 11.445878 4.278520
          CHANNELS 3 Zrotation Xrotation Yrotation
          End Site
          {
            OFFSET 0 0 0
          }
        }
      }
      JOINT ShoulderLeft
      {
        OFFSET -16.130273 -11.643984 8.658318
        CHANNELS 3 Zrotation Xrotation Yrotation
        JOINT ElbowLeft
        {
          OFFSET 26.340741 -12.566046 -1.528698
          CHANNELS 3 Zrotation Xrotation Yrotation
          JOINT WristLeft
          {
            OFFSET -14.864786 -21.912004 -12.915329
            CHANNELS 3 Zrotation Xrotation Yrotation
            JOINT HandLeft
            {
              OFFSET 1.604391 -5.390169 -3.511056
              CHANNELS 3 Zrotation Xrotation Yrotation
              JOINT HandTipLeft
              {
                OFFSET 0.063769 -7.951861 0.071526
                CHANNELS 3 Zrotation Xrotation Yrotation
                End Site
                {
                  OFFSET 0 0 0
                }
              }
              JOINT ThumbLeft
              {
                OFFSET 5.480480 -0.870686 -6.481650
                CHANNELS 3 Zrotation Xrotation Yrotation
                End Site
                {
                  OFFSET 0 0 0
                }
              }
            }
          }
        }
      }
      JOINT ShoulderRight
      {
        OFFSET 6.810200 -6.798386 -12.974193
        CHANNELS 3 Zrotation Xrotation Yrotation
        JOINT ElbowRight
        {
          OFFSET 6.126727 -27.505366 -6.599440
          CHANNELS 3 Zrotation Xrotation Yrotation
          JOINT WristRight
          {
            OFFSET -3.246104 -22.138854 -4.888528
            CHANNELS 3 Zrotation Xrotation Yrotation
            JOINT HandRight
            {
              OFFSET -0.395770 -7.239806 1.467632
              CHANNELS 3 Zrotation Xrotation Yrotation
              JOINT HandTipRight
              {
                OFFSET -1.824100 -7.168453 0.322750
                CHANNELS 3 Zrotation Xrotation Yrotation
                End Site
                {
                  OFFSET 0 0 0
                }
              }
              JOINT ThumbRight
              {
                OFFSET -4.686447 1.533863 5.030055
                CHANNELS 3 Zrotation Xrotation Yrotation
                End Site
                {
                  OFFSET 0 0 0
                }
              }
            }
          }
        }
      }
    }
  }
  JOINT HipLeft
  {
    OFFSET -5.738902 0.755047 0.847034
    CHANNELS 3 Zrotation Xrotation Yrotation
    JOINT KneeLeft
    {
      OFFSET 8.863268 -32.110047 -9.466167
      CHANNELS 3 Zrotation Xrotation Yrotation
      JOINT AnkleLeft
      {
        OFFSET 18.238369 -40.507337 -0.384277
        CHANNELS 3 Zrotation Xrotation Yrotation
        JOINT FootLeft
        {
          OFFSET -4.889713 -3.740322 -0.205910
          CHANNELS 3 Zrotation Xrotation Yrotation
          End Site
          {
            OFFSET 0 0 0
          }
        }
      }
    }
  }
  JOINT HipRight
  {
    OFFSET 5.714249 0.404121 -8.394008
    CHANNELS 3 Zrotation Xrotation Yrotation
    JOINT KneeRight
    {
      OFFSET 7.125711 -36.843541 -0.547529
      CHANNELS 3 Zrotation Xrotation Yrotation
      JOINT AnkleRight
      {
        OFFSET 11.288336 -30.783885 0.374257
        CHANNELS 3 Zrotation Xrotation Yrotation
        JOINT FootRight
        {
          OFFSET -2.556398 -12.254942 -2.468961
          CHANNELS 3 Zrotation Xrotation Yrotation
          End Site
          {
            OFFSET 0 0 0
          }
        }
      }
    }
  }
}
MOTION
Frames: 13
Frame Time: 0.033333
-0.913602 82.065936 301.852794 -0.000000 0.000000 38.898530 0.000000 -0.000000 -38.898530 -0.000000 0.000000 0.000000 -0.000000 0.000000 0.000000 0.000000 0.000000 0.000000 -0.000000 0.000000 0.000000 -0.000000 0.000000 0.000000 -0.000000 0.000000 0.000000 -0.000000 0.000000 0.000000 0.000000 0.000000 0.000000 0.000000 0.000000 0.000000 -0.000000 0.000000 0.000000 -0.000000 0.000000 0.000000 -0.000000 0.000000 0.000000 -0.000000 0.000000 0.000000 0.000000 0.000000 0.000000 0.000000 0.000000 0.000000 0.000000 -0.000000 -38.898530 -0.000000 0.000000 0.000000 -0.000000 0.000000 0.000000 0.000000 0.000000 0.000000 0.000000 -0.000000 -38.898530 -0.000000 0.000000 0.000000 -0.000000 0.000000 0.000000 0.000000 0.000000 0.000000
-0.940339 82.067476 301.856816 -0.036319 0.013067 38.886889 0.020067 -0.032972 -38.886879 -0.000000 0.000000 0.000000 -0.000000 0.000000 0.000000 0.000000 0.000000 0.000000 -0.000000 0.000000 0.000000 -0.000000 0.000000 0.000000 -0.000000 0.000000 0.000000 0.476487 1.708534 0.010885 0.000000 0.000000 0.000000 0.000000 0.000000 0.000000 -0.000000 0.000000 0.000000 -0.000000 0.000000 0.000000 -0.626581 1.535708 -0.203069 1.688601 -4.002217 0.948363 0.000000 0.000000 0.000000 0.000000 0.000000 0.000000 1.253255 0.554612 -38.727521 -1.367358 -1.683898 -0.389843 1.458621 8.838552 -10.882018 0.000000 0.000000 0.000000 0.020067 -0.032972 -38.886879 -0.000000 0.000000 0.000000 -0.000000 0.000000 0.000000 0.000000 0.000000 0.000000
-0.961658 82.073149 301.857877 -0.066708 0.028320 38.866479 0.034169 -0.063910 -38.866443 -0.000000 0.000000 0.000000 -0.000000 0.000000 0.000000 0.000000 0.000000 0.000000 -0.000000 0.000000 0.000000 -0.000000 0.000000 0.000000 -1.005180 -0.629890 0.464632 1.889808 3.641488 -0.476399 0.000000 0.000000 0.000000 0.000000 0.000000 0.000000 -0.000000 0.000000 0.000000 -0.000000 0.000000 0.000000 -1.168246 2.752783 -0.360828 3.209536 -7.159045 1.812603 0.000000 0.000000 0.000000 0.000000 0.000000 0.000000 2.296258 1.021143 -38.581247 -2.497669 -3.072898 -0.750369 3.516392 14.961211 -18.788857 0.000000 0.000000 0.000000 0.034169 -0.063910 -38.866443 -0.000000 0.000000 0.000000 -0.000000 0.000000 0.000000 0.000000 0.000000 0.000000
-0.977561 82.082955 301.855977 -0.091174 0.045763 38.837256 0.042320 -0.092823 -38.837185 -0.000000 0.000000 0.000000 -0.000000 0.000000 0.000000 0.000000 0.000000 0.000000 -0.000000 0.000000 0.000000 -0.000000 0.000000 0.000000 -1.361610 -0.930914 0.604141 2.542849 4.840077 -0.643303 0.000000 0.000000 0.000000 0.000000 0.000000 0.000000 -0.000000 0.000000 0.000000 -0.000000 0.000000 0.000000 -1.629257 3.655191 -0.480926 4.534508 -9.473962 2.540703 0.000000 0.000000 0.000000 0.000000 0.000000 0.000000 3.117280 1.392536 -38.456320 -3.381434 -4.158717 -1.056812 5.456566 19.065026 -24.450867 0.000000 0.000000 0.000000 0.042320 -0.092823 -38.837185 -0.000000 0.000000 0.000000 -0.000000 0.000000 0.000000 0.000000 0.000000 0.000000
-0.988046 82.096895 301.851118 -0.109719 0.065402 38.799184 0.044529 -0.119720 -38.799075 -0.000000 0.000000 0.000000 -0.000000 0.000000 0.000000 0.000000 0.000000 0.000000 -0.000000 0.000000 0.000000 -0.000000 0.000000 0.000000 -1.607429 -1.214076 0.676183 2.971381 5.603021 -0.743060 0.000000 0.000000 0.000000 0.000000 0.000000 0.000000 -0.000000 0.000000 0.000000 -0.000000 0.000000 0.000000 -2.012946 4.246499 -0.569437 5.637100 -10.959054 3.088331 0.000000 0.000000 0.000000 0.000000 0.000000 0.000000 3.706997 1.663014 -38.349791 -4.010005 -4.935558 -1.288971 7.028518 21.808164 -28.499094 0.000000 0.000000 0.000000 0.044529 -0.119720 -38.799075 -0.000000 0.000000 0.000000 -0.000000 0.000000 0.000000 0.000000 0.000000 0.000000
-0.993114 82.114968 301.843298 -0.122343 0.087245 38.752231 0.040799 -0.144620 -38.752087 -0.000000 0.000000 0.000000 -0.000000 0.000000 0.000000 0.000000 0.000000 0.000000 -0.000000 0.000000 0.000000 -0.000000 0.000000 0.000000 -1.736555 -1.473725 0.678973 3.161852 5.922137 -0.766005 0.000000 0.000000 0.000000 0.000000 0.000000 0.000000 -0.000000 0.000000 0.000000 -0.000000 0.000000 0.000000 -2.321731 4.528949 -0.630958 6.496596 -11.628681 3.421030 0.000000 0.000000 0.000000 0.000000 0.000000 0.000000 4.058370 1.827980 -38.259427 -4.376363 -5.399316 -1.431856 8.177287 23.626604 -31.377702 0.000000 0.000000 0.000000 0.040799 -0.144620 -38.752087 -0.000000 0.000000 0.000000 -0.000000 0.000000 0.000000 0.000000 0.000000 0.000000
-0.981390 82.158912 301.810803 -0.114472 0.135622 38.721143 0.004476 -0.177418 -38.721001 -0.000000 0.000000 0.000000 -0.000000 0.000000 0.000000 0.000000 0.000000 0.000000 -0.000000 0.000000 0.000000 -0.000000 0.000000 0.000000 -1.406636 -1.527171 0.448493 2.432656 4.488162 -0.506325 0.000000 0.000000 0.000000 0.000000 0.000000 0.000000 -0.000000 0.000000 0.000000 -0.000000 0.000000 0.000000 -2.891592 4.080594 -0.710571 7.523307 -10.667393 3.428796 0.000000 0.000000 0.000000 0.000000 0.000000 0.000000 4.725138 2.196038 -38.136456 -5.067739 -6.368181 -1.752363 10.855155 27.837195 -38.374783 0.000000 0.000000 0.000000 0.004476 -0.177418 -38.721001 -0.000000 0.000000 0.000000 -0.000000 0.000000 0.000000 0.000000 0.000000 0.000000
-0.975078 82.179766 301.805538 -0.114699 0.148457 38.657935 -0.003169 -0.187577 -38.657792 -0.000000 0.000000 0.000000 -0.000000 0.000000 0.000000 0.000000 0.000000 0.000000 -0.000000 0.000000 0.000000 -0.000000 0.000000 0.000000 -0.000000 0.000000 0.000000 0.058488 2.012430 0.015641 0.000000 0.000000 0.000000 0.000000 0.000000 0.000000 -0.000000 0.000000 0.000000 -0.000000 0.000000 0.000000 -2.705606 3.896672 -0.673382 7.241765 -9.844323 3.148607 0.000000 0.000000 0.000000 0.000000 0.000000 0.000000 3.578935 1.633544 -38.188410 -3.919609 -4.814523 -1.254566 9.526474 27.144743 -37.596632 0.000000 0.000000 0.000000 -0.003169 -0.187577 -38.657792 -0.000000 0.000000 0.000000 -0.406790 0.749976 -0.071683 0.000000 0.000000 0.000000
-0.975853 82.200291 301.811887 -0.124884 0.148210 38.529331 0.005374 -0.193735 -38.529161 -0.000000 0.000000 0.000000 -0.000000 0.000000 0.000000 0.000000 0.000000 0.000000 -0.000000 0.000000 0.000000 -0.000000 0.000000 0.000000 -0.828245 -2.063865 -0.091049 1.235276 3.202788 0.055235 0.000000 0.000000 0.000000 0.000000 0.000000 0.000000 -0.000000 0.000000 0.000000 -0.000000 0.000000 0.000000 -2.753997 3.410871 -0.666026 6.955569 -9.951955 3.201225 0.000000 0.000000 0.000000 0.000000 0.000000 0.000000 3.102212 1.464809 -38.087694 -3.321657 -4.195360 -1.074211 8.460583 23.762771 -32.749410 0.000000 0.000000 0.000000 0.005374 -0.193735 -38.529161 -0.000000 0.000000 0.000000 -0.469123 0.846322 -0.078386 0.000000 0.000000 0.000000
-0.979244 82.210688 301.838379 -0.139293 0.122410 38.434071 0.033020 -0.182473 -38.433869 -0.000000 0.000000 0.000000 -0.000000 0.000000 0.000000 0.000000 0.000000 0.000000 -0.000000 0.000000 0.000000 -0.000000 0.000000 0.000000 0.376626 -1.200909 -0.602364 -0.936388 1.961436 0.626788 0.000000 0.000000 0.000000 0.000000 0.000000 0.000000 -0.000000 0.000000 0.000000 -0.000000 0.000000 0.000000 -2.620378 2.717361 -0.619901 7.122779 -8.401073 2.859803 0.000000 0.000000 0.000000 0.000000 0.000000 0.000000 2.550597 1.304185 -38.018015 -2.551757 -3.493259 -0.887781 8.135179 23.994197 -33.493270 0.000000 0.000000 0.000000 0.033020 -0.182473 -38.433869 -0.000000 0.000000 0.000000 -0.506880 0.902488 -0.081946 0.000000 0.000000 0.000000
-0.982235 82.194798 301.884042 -0.152500 0.080041 38.394948 0.069810 -0.157446 -38.394745 -0.000000 0.000000 0.000000 -0.000000 0.000000 0.000000 0.000000 0.000000 0.000000 -0.000000 0.000000 0.000000 -0.000000 0.000000 0.000000 0.464819 -1.223372 -0.665785 -1.164859 1.671443 0.690714 0.000000 0.000000 0.000000 0.000000 0.000000 0.000000 -0.000000 0.000000 0.000000 -0.000000 0.000000 0.000000 -2.255627 1.887515 -0.524527 6.426412 -7.276600 2.516300 0.000000 0.000000 0.000000 0.000000 0.000000 0.000000 3.226405 1.473807 -37.972650 -2.947019 -3.963979 -0.918036 8.291088 25.227919 -35.370833 0.000000 0.000000 0.000000 0.069810 -0.157446 -38.394745 -0.000000 0.000000 0.000000 -0.562720 0.862464 -0.062151 0.000000 0.000000 0.000000
-0.997705 82.179923 301.941798 -0.173973 0.019055 38.348580 0.124616 -0.122885 -38.348418 -0.000000 0.000000 0.000000 -0.000000 0.000000 0.000000 0.000000 0.000000 0.000000 -0.000000 0.000000 0.000000 -0.000000 0.000000 0.000000 -0.361422 -1.920675 -0.346487 0.337608 3.008033 0.343738 0.000000 0.000000 0.000000 0.000000 0.000000 0.000000 -0.000000 0.000000 0.000000 -0.000000 0.000000 0.000000 -2.024785 1.502574 -0.466879 6.421825 -6.450120 2.306596 0.000000 0.000000 0.000000 0.000000 0.000000 0.000000 3.489061 1.492467 -37.950197 -3.422900 -4.258112 -1.010135 8.920510 27.258622 -38.084930 0.000000 0.000000 0.000000 0.124616 -0.122885 -38.348418 -0.000000 0.000000 0.000000 -0.600453 0.759922 -0.033488 0.000000 0.000000 0.000000
-0.993308 82.158280 302.002960 -0.174124 -0.035998 38.379413 0.158848 -0.079889 -38.379357 -0.000000 0.000000 0.000000 -0.000000 0.000000 0.000000 0.000000 0.000000 0.000000 -0.000000 0.000000 0.000000 -0.000000 0.000000 0.000000 -0.379650 -2.306217 -0.453273 0.816355 4.150812 0.431673 0.000000 0.000000 0.000000 0.000000 0.000000 0.000000 -0.000000 0.000000 0.000000 -0.000000 0.000000 0.000000 -1.726064 1.110631 -0.394362 5.552338 -5.646388 1.998296 0.000000 0.000000 0.000000 0.000000 0.000000 0.000000 3.497702 1.560678 -37.971775 -3.345667 -4.210932 -0.994855 9.657877 31.098493 -43.997559 0.000000 0.000000 0.000000 0.158848 -0.079889 -38.379357 -0.000000 0.000000 0.000000 -0.676709 0.626312 0.009362 0.000000 0.000000 0.000000
